<svg width="20" height="20" viewBox="0 0 20 20" fill="none" xmlns="http://www.w3.org/2000/svg">
<g clip-path="url(#clip0_1524_40699)">
<path d="M10.8333 2.50001V3.33334H9.16661V2.50001H10.8333ZM9.99995 8.42501L14.4833 9.90001L16.4749 10.55L15.5416 13.8583C15.0916 13.6083 14.7583 13.2667 14.5916 13.075L13.3333 11.6333L12.0749 13.0667C11.7916 13.4 11.0083 14.1667 9.99995 14.1667C8.99161 14.1667 8.20828 13.4 7.92495 13.0667L6.66661 11.6333L5.40828 13.0667C5.24161 13.2583 4.90828 13.5917 4.45828 13.8417L3.51661 10.5417L5.51661 9.88334L9.99995 8.42501ZM12.4999 0.833344H7.49995V3.33334H4.99995C4.08328 3.33334 3.33328 4.08334 3.33328 5.00001V8.85001L2.25828 9.20001C2.04161 9.26668 1.85828 9.41668 1.75828 9.61668C1.65828 9.81668 1.63328 10.05 1.70828 10.2667L3.29161 15.8333H3.33328C4.66661 15.8333 5.84995 15.1 6.66661 14.1667C7.48328 15.1 8.66661 15.8333 9.99995 15.8333C11.3333 15.8333 12.5166 15.1 13.3333 14.1667C14.1499 15.1 15.3333 15.8333 16.6666 15.8333H16.7083L18.2833 10.2667C18.3499 10.05 18.3333 9.81668 18.2333 9.61668C18.1333 9.41668 17.9499 9.26668 17.7333 9.20001L16.6666 8.85001V5.00001C16.6666 4.08334 15.9166 3.33334 14.9999 3.33334H12.4999V0.833344ZM4.99995 8.30834V5.00001H14.9999V8.30834L9.99995 6.66668L4.99995 8.30834ZM13.3333 16.4C12.3166 17.1083 11.1583 17.4667 9.99995 17.4667C8.84161 17.4667 7.68328 17.1083 6.66661 16.4C5.64995 17.1083 4.49161 17.5 3.33328 17.5H1.66661V19.1667H3.33328C4.48328 19.1667 5.61661 18.875 6.66661 18.3417C7.71661 18.875 8.85828 19.15 9.99995 19.15C11.1416 19.15 12.2833 18.8833 13.3333 18.3417C14.3833 18.8833 15.5166 19.1667 16.6666 19.1667H18.3333V17.5H16.6666C15.5083 17.5 14.3499 17.1083 13.3333 16.4Z" fill="#F49582"/>
</g>
<defs>
<clipPath id="clip0_1524_40699">
<rect width="20" height="20" fill="white"/>
</clipPath>
</defs>
</svg>
