<svg width="20" height="20" viewBox="0 0 20 20" fill="none" xmlns="http://www.w3.org/2000/svg">
<g clip-path="url(#clip0_1524_40696)">
<path d="M16.6667 6.66668H14.1667V3.33334H2.50004C1.58337 3.33334 0.833374 4.08334 0.833374 5.00001V14.1667H2.50004C2.50004 15.55 3.61671 16.6667 5.00004 16.6667C6.38337 16.6667 7.50004 15.55 7.50004 14.1667H12.5C12.5 15.55 13.6167 16.6667 15 16.6667C16.3834 16.6667 17.5 15.55 17.5 14.1667H19.1667V10L16.6667 6.66668ZM16.25 7.91668L17.8834 10H14.1667V7.91668H16.25ZM5.00004 15C4.54171 15 4.16671 14.625 4.16671 14.1667C4.16671 13.7083 4.54171 13.3333 5.00004 13.3333C5.45837 13.3333 5.83337 13.7083 5.83337 14.1667C5.83337 14.625 5.45837 15 5.00004 15ZM6.85004 12.5C6.39171 11.9917 5.74171 11.6667 5.00004 11.6667C4.25837 11.6667 3.60837 11.9917 3.15004 12.5H2.50004V5.00001H12.5V12.5H6.85004ZM15 15C14.5417 15 14.1667 14.625 14.1667 14.1667C14.1667 13.7083 14.5417 13.3333 15 13.3333C15.4584 13.3333 15.8334 13.7083 15.8334 14.1667C15.8334 14.625 15.4584 15 15 15Z" fill="#2BABAD"/>
</g>
<defs>
<clipPath id="clip0_1524_40696">
<rect width="20" height="20" fill="white"/>
</clipPath>
</defs>
</svg>
