<svg width="179" height="32" viewBox="0 0 179 32" fill="none" xmlns="http://www.w3.org/2000/svg">
<path d="M27.6746 0H4.32259C1.93664 0 0.00244141 1.93458 0.00244141 4.32101V27.6777C0.00244141 30.0641 1.93664 31.9987 4.32259 31.9987H27.6746C30.0606 31.9987 31.9948 30.0641 31.9948 27.6777V4.32101C31.9948 1.93458 30.0606 0 27.6746 0Z" fill="#E2E2E2"/>
<path d="M0 27.679C0 28.825 0.455157 29.9241 1.26534 30.7344C1.66651 31.1356 2.14276 31.4539 2.6669 31.6711C3.19105 31.8882 3.75282 32 4.32015 32H27.6786C28.8245 32 29.9234 31.5448 30.7338 30.7345C31.5442 29.9242 31.9997 28.8251 32 27.679V4.32229C32 3.17595 31.5447 2.07656 30.7343 1.26597C29.9239 0.455383 28.8247 0 27.6786 0C15.8106 6.1387 6.13967 15.8098 0 27.679Z" fill="white"/>
<path d="M20.2103 8.61768L18.0075 10.8209L15.9871 12.8405L13.9858 10.8375L11.7651 8.61768H20.2103Z" fill="#F45D48"/>
<path d="M13.4598 13.5815L12.7634 17.8451L9.29397 14.7054V14.6378H9.22636L9.29397 14.7054V25.5634H5.43555V5.90137L13.4598 13.5815Z" fill="#005961"/>
<path d="M18.3089 25.5597L18.305 25.5635L15.9862 27.8841L13.666 25.5648V25.5635L14.8612 14.9224H17.115L18.3089 25.5597Z" fill="#005961"/>
<path d="M18.5376 13.5815L19.2353 17.8451L22.7047 14.7054V14.6378H22.7723L22.7047 14.7054V25.5634H26.5618V5.90137L18.5376 13.5815Z" fill="#005961"/>
<path d="M47.0703 18.6955L45.7688 15.0803C45.8049 16.0722 45.8226 17.2773 45.8219 18.6955V25.2005H42V6.80164H45.8275L48.1379 12.9078L49.4122 16.4925C49.7843 15.3628 50.209 14.1577 50.6865 12.8773L52.9957 6.79712H56.8459V25.2005H52.9912V18.6695L53.0443 15.112C52.6911 16.1739 52.2663 17.3597 51.7699 18.6695L51.0537 20.5279H47.7616L47.0703 18.6955Z" fill="white"/>
<path d="M67.0352 20.9531H63.69L62.8992 25.2009H58.9644L62.7874 6.802H67.9378L71.7609 25.2009H67.8317L67.0352 20.9531ZM66.398 17.5808C65.849 14.7316 65.5036 12.4661 65.3621 10.7843C65.1677 12.6785 64.8228 14.944 64.3272 17.5808H66.398Z" fill="white"/>
<path d="M85.6184 6.802V25.2009H81.7953L79.3257 18.8823C79.0433 18.1743 78.7823 17.4885 78.5428 16.825C78.3033 16.1615 78.1041 15.5993 77.9452 15.1383C77.7855 14.6789 77.6484 14.2763 77.534 13.9306C77.4195 13.5849 77.331 13.3063 77.2685 13.0946C77.2353 12.9687 77.1954 12.8446 77.1487 12.7229C77.5916 14.0508 77.813 16.5817 77.813 20.3159V25.2009H73.8838V6.802H77.813L80.2284 12.9613C81.3438 15.812 82.0431 17.8474 82.3263 19.0675C81.9015 17.458 81.6891 14.9094 81.6891 11.4215V6.802H85.6184Z" fill="white"/>
<path d="M95.8135 20.9531H92.4683L91.6707 25.2009H87.7393L91.5645 6.802H96.715L100.539 25.2009H96.6088L95.8135 20.9531ZM95.1752 17.5808C94.6276 14.7316 94.2827 12.4661 94.1403 10.7843C93.946 12.6785 93.6007 14.944 93.1044 17.5808H95.1752Z" fill="white"/>
<path d="M102.398 11.2897C102.398 9.83833 102.867 8.68336 103.806 7.82476C104.744 6.96616 106.125 6.53687 107.947 6.53687C109.771 6.53687 111.156 6.96616 112.102 7.82476C113.049 8.68336 113.522 9.83833 113.522 11.2897V12.6171H109.545V11.5021C109.545 10.6178 109.014 10.1754 107.952 10.1746C106.908 10.1746 106.386 10.6171 106.385 11.5021V20.5015C106.385 21.3872 106.916 21.8297 107.978 21.829C109.023 21.829 109.545 21.3865 109.545 20.5015V18.0059H108.107V14.5546H113.499V25.2012H109.756V23.4219C109.739 23.5787 109.684 23.7291 109.597 23.8602C109.459 24.0873 109.294 24.2967 109.105 24.4838C108.832 24.7474 108.506 24.9509 108.149 25.0815C107.697 25.2563 107.215 25.3419 106.729 25.3334C105.298 25.3334 104.219 24.9192 103.49 24.0907C102.762 23.2622 102.399 22.1558 102.401 20.7715L102.398 11.2897Z" fill="white"/>
<path d="M125.894 25.2009H116.575V6.802H125.894V10.2533H120.557V14.1577H125.177V17.6091H120.557V21.7495H125.894V25.2009Z" fill="white"/>
<path d="M133.222 18.7229H132.398V25.2008H128.412V6.802H133.668C135.492 6.802 136.877 7.2313 137.823 8.0899C138.77 8.94849 139.245 10.105 139.248 11.5593V13.9747C139.248 15.8327 138.514 17.1692 137.045 17.9841L139.673 25.2053H135.293L133.222 18.7229ZM132.398 15.2716H133.673C134.735 15.2716 135.266 14.8291 135.266 13.9442V11.5808C135.266 10.6958 134.735 10.2533 133.673 10.2533H132.398V15.2716Z" fill="white"/>
<path d="M142.061 25.2009V6.802H146.096V25.2009H142.061Z" fill="white"/>
<path d="M160.328 6.802V20.7102C160.328 22.1623 159.85 23.3172 158.894 24.1751C157.939 25.0329 156.549 25.4622 154.727 25.463C152.903 25.463 151.518 25.0337 150.572 24.1751C149.625 23.3165 149.151 22.1615 149.15 20.7102V6.802H153.16V20.5283C153.16 21.4133 153.682 21.8557 154.727 21.8557C155.787 21.8557 156.318 21.4133 156.32 20.5283V6.802H160.328Z" fill="white"/>
<path d="M168.45 18.6955L167.148 15.0803C167.183 16.0722 167.201 17.2773 167.201 18.6955V25.2005H163.378V6.80164H167.201L169.512 12.9078L170.786 16.4925C171.158 15.3628 171.583 14.1577 172.06 12.8773L174.37 6.79712H178.22V25.2005H174.37V18.6695L174.423 15.112C174.069 16.1739 173.645 17.3597 173.148 18.6695L172.432 20.5279H169.14L168.45 18.6955Z" fill="white"/>
</svg>
