<svg width="36" height="36" viewBox="0 0 36 36" fill="none" xmlns="http://www.w3.org/2000/svg">
<path d="M31.1336 0H4.86261C2.17841 0 0.00244141 2.17641 0.00244141 4.86114V31.1374C0.00244141 33.8221 2.17841 35.9985 4.86261 35.9985H31.1336C33.8178 35.9985 35.9938 33.8221 35.9938 31.1374V4.86114C35.9938 2.17641 33.8178 0 31.1336 0Z" fill="#E2E2E2"/>
<path d="M0 31.1389C0 32.4281 0.512052 33.6646 1.42351 34.5762C1.87482 35.0276 2.4106 35.3857 3.00026 35.63C3.58993 35.8743 4.22193 36 4.86017 36H31.1384C32.4275 36 33.6639 35.4879 34.5756 34.5763C35.4872 33.6647 35.9996 32.4282 36 31.1389V4.86258C36 3.57294 35.4878 2.33613 34.5761 1.42422C33.6643 0.512305 32.4278 0 31.1384 0C17.7869 6.90604 6.90712 17.786 0 31.1389Z" fill="white"/>
<path d="M22.7366 9.69501L20.2585 12.1737L17.9855 14.4456L15.7341 12.1923L13.2358 9.69501H22.7366Z" fill="#F45D48"/>
<path d="M15.1423 15.2793L14.3588 20.0758L10.4557 16.5437V16.4676H10.3797L10.4557 16.5437V28.759H6.11499V6.63916L15.1423 15.2793Z" fill="#005961"/>
<path d="M20.5975 28.7548L20.5932 28.7591L17.9844 31.3698L15.3743 28.7605V28.7591L16.7188 16.7878H19.2544L20.5975 28.7548Z" fill="#005961"/>
<path d="M20.8547 15.2793L21.6397 20.0758L25.5427 16.5437V16.4676H25.6188L25.5427 16.5437V28.759H29.882V6.63916L20.8547 15.2793Z" fill="#005961"/>
</svg>
